<svg width="11" height="11" viewBox="0 0 11 11" fill="none" xmlns="http://www.w3.org/2000/svg">
<path fill-rule="evenodd" clip-rule="evenodd" d="M8.52064 6.5671C8.55212 6.55638 8.58004 6.53903 8.60277 6.51608C8.64854 6.46911 8.67082 6.40269 8.66489 6.33092L8.33319 2.49918C8.31749 2.35062 8.18759 2.22072 8.03903 2.20502L4.20681 1.87522C4.0987 1.86768 4.00759 1.9253 3.97496 2.02183C3.94234 2.11836 3.97445 2.23535 4.05667 2.31951L5.09753 3.36037L1.59809 6.85982C1.40524 7.05344 1.43492 7.39624 1.66445 7.62643L2.9132 8.87518C3.14339 9.10471 3.48619 9.13438 3.67981 8.94154L7.17925 5.44209L8.22011 6.48296C8.30434 6.56727 8.42303 6.6005 8.52064 6.5671ZM3.26332 8.52505L2.01457 7.2763L5.68807 3.60139C5.78459 3.50487 5.76976 3.33355 5.65495 3.21873L4.90542 2.4692L7.81708 2.72255L8.06689 5.63068L7.32019 4.88397C7.20537 4.76916 7.03405 4.75433 6.93753 4.85085L3.26332 8.52505Z" fill="white"/>
<path d="M8.07641 1.98486V6.10086L7.13319 4.86186L6.9163 5.09486L3.31828 9.23686L3.04254 9.33086L1.78156 7.78686L5.55696 3.22486L4.7701 1.98586L8.07641 1.98486Z" fill="white"/>
</svg>
