<svg width="151" height="32" viewBox="0 0 151 32" fill="none" xmlns="http://www.w3.org/2000/svg">
<circle cx="17" cy="17" r="15" fill="url(#paint0_linear)"/>
<path d="M4.60848 14.155C4.60848 14.155 2.57342 18.8704 5.1725 24.5039C7.77218 30.1373 16.792 29.8131 24.0571 26.4002C31.3224 22.9878 34.9564 16.563 27.2947 8.15633C19.6329 -0.250924 6.73821 9.02488 4.60848 14.155Z" fill="white"/>
<path d="M10.2445 20.7326C10.2445 20.7326 8.38836 16.0867 11.4818 15.0221C14.575 13.957 14.2579 20.9382 15.9852 22.2004C17.7125 23.4626 21.4239 23.1621 22.2733 20.278C23.1226 17.3939 17.9485 13.11 21.7159 10.7697C25.4833 8.4294 28.9311 15.2807 28.686 19.4101C28.4414 23.5393 14.1074 28.4664 10.2445 20.7326Z" fill="white"/>
<path d="M27.2953 8.1559C19.6335 -0.251351 7.2397 4.3319 4.25636 14.0735C4.25636 14.0735 2.57364 18.8707 5.17332 24.5041C5.94511 26.1772 7.28718 27.321 8.97778 28.0182C7.60753 26.5523 6.17049 24.4079 5.77312 21.6077C4.95633 15.8578 9.70961 6.72687 17.5838 19.1433L18.7537 18.8598C18.7537 18.8598 15.375 10.1498 21.3943 8.39285C26.2985 6.9611 30.3844 14.5066 30.9155 20.1561C32.3182 16.885 31.5522 12.8272 27.2953 8.1559Z" fill="#232323"/>
<path d="M4.25606 14.0727C4.25606 14.0727 2.57334 18.87 5.17284 24.5027C5.94463 26.1759 7.2867 27.3196 8.9773 28.0168C8.37374 27.3712 7.75744 26.5936 7.22256 25.6867C3.02814 21.0003 3.30156 11.5117 12.7486 6.60672C17.1687 4.31166 21.1711 4.58689 24.3068 5.6489C16.7507 0.94545 6.87558 5.51863 4.25606 14.0727Z" fill="black"/>
<path d="M18.3088 17.4281C16.8469 16.8834 15.8052 15.615 13.9999 14.057C11.3603 11.7796 9.40867 13.0791 9.40867 13.0791L9.40885 13.0797C11.4411 12.4761 14.2288 13.8532 17.5831 19.143L18.753 18.8594C18.7536 18.8593 18.5352 18.2954 18.3088 17.4281Z" fill="black"/>
<path d="M16.9663 20.2665C16.8927 19.338 17.5861 18.5255 18.5156 18.4507C19.4452 18.3765 20.2581 19.0684 20.3322 19.9967C20.4058 20.9251 19.7126 21.7382 18.7829 21.8124C17.8533 21.8866 17.0404 21.1947 16.9663 20.2665Z" fill="#FFC200"/>
<path d="M18.9321 21.3998C18.0026 21.4746 17.1895 20.7821 17.1154 19.8538C17.1012 19.6784 17.1226 19.5097 17.1601 19.3466C17.015 19.62 16.9404 19.9349 16.9663 20.2669C17.0399 21.1954 17.8535 21.8877 18.783 21.8129C19.5367 21.7524 20.1359 21.2037 20.2961 20.5044C20.0352 20.9969 19.5298 21.3516 18.9321 21.3998Z" fill="#FF9D00"/>
<path d="M20.3431 19.7508C20.3431 19.7508 16.9552 21.3739 16.5086 21.1771C16.062 20.9803 16.4659 18.3655 18.2686 18.1609C20.0712 17.9563 21.7163 18.9175 20.3431 19.7508Z" fill="#FFC200"/>
<path d="M19.6977 19.4325C19.6977 19.4325 17.4844 20.493 17.1921 20.3645C16.8998 20.236 17.1641 18.5276 18.3422 18.3932C19.5202 18.2588 20.5946 18.8879 19.6977 19.4325Z" fill="#FFD86C"/>
<path d="M20.6367 19.2488C20.6367 19.2488 17.2488 20.8719 16.8022 20.6751C16.5598 20.5681 16.5708 19.7483 16.9179 18.9879C16.2946 19.838 16.2103 21.0457 16.5087 21.177C16.9553 21.3738 20.3433 19.7506 20.3433 19.7506C20.6996 19.5341 20.8493 19.3098 20.8491 19.0985C20.7882 19.1487 20.7181 19.199 20.6367 19.2488Z" fill="#FF9D00"/>
<path d="M18.5624 20.8165C18.5624 20.8165 19.8736 20.0941 20.0755 20.1268C20.2774 20.1596 19.9929 20.8865 19.336 21.0873C18.6784 21.2883 18.1818 21.0484 18.5624 20.8165Z" fill="#FFD86C"/>
<ellipse cx="11.8991" cy="20.142" rx="1.09799" ry="1.09641" transform="rotate(-17 11.8991 20.142)" fill="black"/>
<path d="M12.2438 19.6292C12.308 19.8393 12.1892 20.0613 11.9795 20.1254C11.7691 20.1897 11.5469 20.0713 11.4828 19.8618C11.4186 19.6518 11.5374 19.4297 11.7472 19.3656C11.9569 19.3015 12.1795 19.4191 12.2438 19.6292Z" fill="white"/>
<ellipse cx="24.0566" cy="16.0175" rx="1.09799" ry="1.09641" transform="rotate(-17 24.0566 16.0175)" fill="black"/>
<ellipse cx="24.02" cy="15.6205" rx="0.397842" ry="0.397267" transform="rotate(-17 24.02 15.6205)" fill="white"/>
<path d="M29.1582 17.1706C29.4 17.9616 28.9537 18.7996 28.1615 19.0418C27.3693 19.284 26.5307 18.8389 26.2888 18.0478C26.047 17.2568 26.4933 16.4188 27.2855 16.1766C28.0777 15.9344 28.9163 16.3796 29.1582 17.1706Z" fill="#FFB3B9"/>
<path d="M11.8628 22.9968C12.1046 23.7878 11.6583 24.6258 10.8661 24.868C10.0739 25.1102 9.23525 24.665 8.99341 23.874C8.75157 23.083 9.19793 22.245 9.9901 22.0028C10.7829 21.7604 11.6208 22.2051 11.8628 22.9968Z" fill="#FFB3B9"/>
<path d="M10.2496 8.98921C10.2496 8.98921 14.8899 5.55317 19.986 5.61598C25.0822 5.67939 27.8797 8.9468 29.4341 11.683C30.9892 14.4191 31.3527 16.8242 31.2009 18.0989C31.0488 19.373 31.0667 16.4954 29.8706 14.0514C28.6745 11.6067 25.7194 6.5343 21.1489 7.51478C16.5784 8.49526 17.0829 13.0814 17.2456 14.5757C17.4083 16.07 14.9701 13.5619 13.6966 12.7887C12.4231 12.0154 9.57804 11.6701 7.79632 13.2337C6.0146 14.7972 5.09815 18.0782 5.21096 20.5737C5.32377 23.0693 4.25862 18.1733 5.77528 14.6236C7.29273 11.0742 10.2496 8.98921 10.2496 8.98921Z" fill="#333333"/>
<path d="M47.356 25C47.5131 24.9229 47.5982 24.9101 47.6113 24.9615C47.6244 25.0128 47.6702 24.9872 47.7488 24.8844C48.5082 23.3942 49.3201 21.9233 50.1843 20.4716C51.0485 19.0199 51.8472 17.8188 52.5805 16.8682L58.9442 23.8824C59.1537 23.7539 59.2258 23.619 59.1603 23.4777C59.0948 23.3364 59.0752 23.2015 59.1014 23.073C59.1275 22.8932 59.1145 22.7519 59.0621 22.6491C59.0097 22.5463 58.9573 22.4564 58.9049 22.3793C58.8526 22.3022 58.8002 22.2316 58.7478 22.1673C58.6954 22.1031 58.6693 22.0068 58.6693 21.8783C58.6693 21.7498 58.6169 21.5122 58.5121 21.1653C58.4074 20.8185 58.3288 20.5808 58.2764 20.4523C57.7789 19.5788 57.1569 18.6217 56.4105 17.5811C55.6642 16.5406 54.8851 15.5963 54.0732 14.7485C54.3875 14.286 54.7738 13.7786 55.2321 13.2262C55.6903 12.6738 56.1683 12.1085 56.6659 11.5304C57.1634 10.9523 57.6741 10.3807 58.1979 9.81542C58.7216 9.25017 59.2192 8.73631 59.6906 8.27383C59.8215 8.14537 59.9787 8.01048 60.162 7.86917C60.3453 7.72786 60.5024 7.59297 60.6334 7.4645C60.8429 7.25896 60.9607 7.11122 60.9869 7.0213C61.0131 6.93137 61 6.78364 60.9476 6.57809C60.8952 6.44963 60.8756 6.35328 60.8887 6.28905C60.9018 6.22481 60.8429 6.12847 60.7119 6C59.9787 6 59.2258 6.23766 58.4532 6.71298C57.6806 7.1883 56.9212 7.78567 56.1748 8.50507C55.4285 9.22448 54.7083 10.0017 54.0143 10.8367C53.3203 11.6717 52.6853 12.4618 52.1091 13.2069L51.3628 12.5517C50.7342 12.0892 50.1319 11.6653 49.5558 11.2799C48.9796 10.8945 48.3969 10.5412 47.8077 10.2201C47.2185 9.89892 46.6096 9.61629 45.9811 9.37221C45.3526 9.12813 44.6586 8.91616 43.8991 8.73631C43.7944 8.71062 43.7158 8.71062 43.6634 8.73631C43.6111 8.762 43.5325 8.80054 43.4277 8.85193C43.2968 8.92901 43.2117 8.99966 43.1724 9.06389C43.1331 9.12813 43.0873 9.21163 43.0349 9.3144C42.9825 9.46856 42.9891 9.61629 43.0546 9.75761C43.12 9.89892 43.1528 10.0338 43.1528 10.1623L43.7027 10.5862C44.6979 11.2542 45.7847 11.9929 46.9631 12.8022C48.1416 13.6116 49.3986 14.5044 50.7342 15.4807C50.42 15.9432 50.0861 16.4571 49.7325 17.0223C49.379 17.5876 49.0386 18.1657 48.7112 18.7566C48.3839 19.3475 48.0827 19.9385 47.8077 20.5294C47.5327 21.1204 47.3429 21.6728 47.2381 22.1866C47.1857 22.3665 47.1857 22.572 47.2381 22.8032C47.2905 23.0345 47.3167 23.24 47.3167 23.4199V24.2485C47.3167 24.4669 47.3298 24.7174 47.356 25Z" fill="black"/>
<path fill-rule="evenodd" clip-rule="evenodd" d="M108.562 24.4831C108.534 24.66 108.491 24.8324 108.435 25C108.209 24.7206 108.025 24.4226 107.884 24.1059C107.742 23.7892 107.596 23.4725 107.446 23.1559C107.125 22.2059 106.819 21.2093 106.527 20.1662C106.235 19.123 105.948 18.0613 105.665 16.9809C105.138 16.9623 104.572 16.9529 103.97 16.9529H102.161C101.558 16.9529 100.988 16.9576 100.451 16.9669C99.9141 16.9762 99.4478 16.9902 99.0522 17.0088C99.0145 17.1206 98.9768 17.251 98.9391 17.4C98.8261 17.6422 98.7319 17.9076 98.6565 18.1963C98.5812 18.485 98.5152 18.7924 98.4587 19.1184C98.4022 19.4444 98.3362 19.7843 98.2609 20.1382C98.1855 20.4922 98.0913 20.8461 97.9783 21.2C98.2079 21.2 98.4334 21.1304 98.6547 20.9913L98.6989 20.9625C98.9344 20.8042 99.1746 20.725 99.4196 20.725C99.25 20.8926 99.104 21.0789 98.9815 21.2838C98.8591 21.4887 98.7507 21.7588 98.6565 22.0941C98.6377 22.1873 98.5812 22.285 98.487 22.3875C98.3928 22.49 98.3268 22.5691 98.2891 22.625C98.2514 22.6995 98.2138 22.7787 98.1761 22.8625C98.1384 22.9463 98.0913 23.0069 98.0348 23.0441C97.9029 23.1186 97.7899 23.1605 97.6957 23.1699C97.6014 23.1792 97.5355 23.1559 97.4978 23.1C97.3471 22.8765 97.2482 22.639 97.2011 22.3875C97.154 22.136 97.1116 21.8706 97.0739 21.5912C97.0739 21.0882 97.1399 20.4363 97.2717 19.6353C97.4036 18.8343 97.5732 17.9775 97.7804 17.0647C97.6297 17.0275 97.479 16.9576 97.3283 16.8551C97.1775 16.7527 97.0457 16.6828 96.9326 16.6456C96.7254 16.5525 96.5558 16.5012 96.4239 16.4919C96.292 16.4826 96.1507 16.4127 96 16.2824L97.7239 15.8353C97.8181 15.8353 97.9406 15.8167 98.0913 15.7794C98.3174 14.9039 98.5435 14.0657 98.7696 13.2647C98.9957 12.4637 99.2123 11.7838 99.4196 11.225C99.5703 10.7966 99.754 10.3029 99.9707 9.74412C100.187 9.18529 100.442 8.64976 100.734 8.1375C101.026 7.62525 101.355 7.18284 101.723 6.81029C102.09 6.43775 102.491 6.2049 102.924 6.11176C103.056 6.07451 103.188 6.04657 103.32 6.02794C103.451 6.00931 103.593 6 103.743 6C103.894 6 104.007 6.06985 104.083 6.20956C104.158 6.34926 104.271 6.52157 104.422 6.72647C104.516 6.89412 104.605 7.03848 104.69 7.15956C104.775 7.28064 104.864 7.52745 104.959 7.9C105.411 9.2598 105.835 10.6243 106.23 11.9934C106.626 13.3625 106.975 14.6525 107.276 15.8632L109 16.2265L108.689 16.2824C108.633 16.3755 108.553 16.436 108.449 16.464C108.345 16.4919 108.246 16.5338 108.152 16.5897C108.058 16.6456 107.964 16.7201 107.87 16.8132C107.775 16.9064 107.681 16.9809 107.587 17.0368C107.851 18.0426 108.058 18.9181 108.209 19.6632C108.359 20.4083 108.454 20.9672 108.491 21.3397C108.529 21.7123 108.557 22.1221 108.576 22.5691C108.595 23.0162 108.604 23.426 108.604 23.7985C108.604 24.0779 108.59 24.3061 108.562 24.4831ZM100.324 12.7478C100.041 13.5953 99.7493 14.55 99.4478 15.6118C100.428 15.5 101.407 15.4348 102.387 15.4162C103.367 15.3975 104.337 15.4348 105.298 15.5279C104.902 14.0191 104.516 12.5522 104.139 11.1272C103.762 9.70221 103.357 8.43088 102.924 7.31324C102.604 7.74167 102.302 8.21201 102.02 8.72426C101.737 9.23652 101.454 9.82328 101.172 10.4846C100.889 11.1458 100.607 11.9002 100.324 12.7478Z" fill="black"/>
<path d="M114.893 24.7917C115.083 24.9676 115.286 25.0321 115.5 24.9852C115.881 24.9148 116.411 24.7917 117.089 24.6158C117.768 24.4399 118.518 24.2346 119.339 24.0001C120.161 23.7655 121 23.5075 121.857 23.2261C122.714 22.9446 123.524 22.6632 124.286 22.3817C125.048 22.1002 125.702 21.8247 126.25 21.5549C126.798 21.2852 127.179 21.0331 127.393 20.7985C127.512 20.6578 127.643 20.4701 127.786 20.2356C127.929 20.001 128 19.7548 128 19.4968C128 19.2153 127.976 19.0687 127.929 19.057C127.881 19.0453 127.833 18.9808 127.786 18.8635C127.81 18.6993 127.726 18.6172 127.536 18.6172C127.25 18.6172 126.929 18.6993 126.571 18.8635C125.714 19.1918 124.851 19.5026 123.982 19.7958C123.113 20.089 122.214 20.3529 121.286 20.5874C120.357 20.822 119.375 21.0331 118.339 21.2207C117.304 21.4083 116.202 21.5725 115.036 21.7132C115.083 20.7281 115.119 19.573 115.143 18.2478C115.167 16.9226 115.161 15.615 115.125 14.325C115.089 13.035 115.006 11.8681 114.875 10.8243C114.744 9.78061 114.56 9.04765 114.321 8.62546C114.25 8.50819 114.167 8.43196 114.071 8.39678C113.976 8.36159 113.869 8.32055 113.75 8.27364C113.607 8.22673 113.47 8.15637 113.339 8.06255C113.208 7.96873 113.119 7.98045 113.071 8.09773C113.19 9.34083 113.25 10.5077 113.25 11.5984C113.25 12.689 113.226 13.7445 113.179 14.7648C113.131 15.785 113.083 16.776 113.036 17.7377C112.988 18.6993 112.988 19.6609 113.036 20.6226C113.06 20.9979 113.107 21.379 113.179 21.766C113.25 22.153 113.381 22.5224 113.571 22.8743C113.738 23.2495 113.839 23.5662 113.875 23.8242C113.911 24.0822 114.095 24.2933 114.429 24.4575C114.548 24.5044 114.702 24.6158 114.893 24.7917Z" fill="black"/>
<path d="M134.912 24C134.958 23.7731 134.986 23.4947 134.998 23.1646C135.009 22.8346 134.98 22.5871 134.912 22.4221C134.798 22.1952 134.781 21.9425 134.861 21.6641C134.94 21.3856 134.958 21.1123 134.912 20.8442C134.638 18.8022 134.375 16.7705 134.124 14.7492C133.873 12.7278 133.656 10.6961 133.473 8.65414C133.45 8.55101 133.405 8.48913 133.336 8.46851C133.268 8.44788 133.199 8.40663 133.131 8.34475C133.085 8.3035 133.016 8.25709 132.925 8.20552C132.834 8.15396 132.731 8.11786 132.617 8.09724C132.502 8.07661 132.405 8.05083 132.325 8.01989C132.246 7.98895 132.183 7.99411 132.137 8.03536C132.046 8.11786 132 8.33444 132 8.68508C132 9.73702 132.006 10.8457 132.017 12.011C132.029 13.1764 132.069 14.3573 132.137 15.5536C132.206 16.7499 132.32 17.9308 132.48 19.0961C132.639 20.2615 132.868 21.3702 133.165 22.4221C133.256 22.6696 133.399 22.8707 133.593 23.0254C133.787 23.1801 133.964 23.34 134.124 23.505C134.261 23.6494 134.392 23.768 134.518 23.8608C134.644 23.9536 134.775 24 134.912 24Z" fill="black"/>
<path d="M80.0434 26C80.1703 25.851 80.2337 25.6275 80.2337 25.3294C80.2337 25.0314 80.221 24.7085 80.1956 24.3608C80.2718 24.2366 80.3416 24.0317 80.405 23.7461C80.4685 23.4605 80.5256 23.2183 80.5763 23.0196C80.6271 22.8458 80.6652 22.7216 80.6906 22.6471C80.7159 22.5725 80.7159 22.4235 80.6906 22.2C80.3606 20.6105 80.2401 18.9029 80.3289 17.0775C80.4177 15.252 80.754 13.3706 81.3378 11.4333C81.9723 11.5824 82.6004 11.9301 83.2222 12.4765C83.8441 13.0229 84.4215 13.6438 84.9544 14.3392C85.4874 15.0346 85.976 15.7487 86.4202 16.4814C86.8643 17.2141 87.2387 17.8536 87.5432 18.4C87.797 18.8222 88.0191 19.2444 88.2095 19.6667C88.3998 20.0889 88.6092 20.5049 88.8376 20.9147C89.0661 21.3245 89.3135 21.7343 89.58 22.1441C89.8465 22.5539 90.1828 22.9575 90.5889 23.3549C90.7158 23.4791 90.7792 23.566 90.7792 23.6157C90.7792 23.6654 90.8934 23.6902 91.1219 23.6902C91.2741 23.6902 91.4201 23.7274 91.5597 23.802C91.6993 23.8765 91.8452 23.8516 91.9975 23.7275C92.1751 23.6033 92.283 23.5225 92.3211 23.4853C92.3591 23.448 92.467 23.3425 92.6447 23.1686C92.6447 22.6967 92.6193 22.2993 92.5685 21.9765C92.5178 21.6536 92.4416 21.3493 92.3401 21.0637C92.2386 20.7781 92.118 20.4739 91.9784 20.151C91.8389 19.8281 91.6929 19.4307 91.5406 18.9588C91.566 18.3627 91.6358 17.6922 91.75 16.9471C91.8642 16.202 91.9848 15.4507 92.1117 14.6931C92.2386 13.9356 92.3782 13.2154 92.5305 12.5324C92.6827 11.8493 92.835 11.2719 92.9873 10.8C92.9619 10.5765 92.9112 10.2971 92.835 9.96176C92.7589 9.62647 92.7462 9.33464 92.797 9.08627C92.8477 8.73856 92.8985 8.36601 92.9492 7.96863C93 7.57124 93.0127 7.24837 92.9873 7C92.8604 7.02484 92.7652 7.03725 92.7018 7.03725C92.6383 7.03725 92.5432 7.06209 92.4163 7.11176C92.2386 7.16144 92.0927 7.2732 91.9784 7.44706C91.8642 7.62092 91.7564 7.75752 91.6548 7.85686C91.4772 8.03072 91.3122 8.22941 91.1599 8.45294C91.0076 8.67647 90.8934 8.96209 90.8173 9.3098C90.7412 9.73203 90.6333 10.3095 90.4937 11.0422C90.3541 11.7748 90.2145 12.551 90.0749 13.3706C89.9353 14.1902 89.8084 14.9974 89.6942 15.7922C89.58 16.5869 89.5102 17.2575 89.4848 17.8039C89.1295 17.183 88.7107 16.4441 88.2285 15.5873C87.7463 14.7304 87.1816 13.8922 86.5344 13.0725C85.8872 12.2529 85.1385 11.5265 84.2882 10.8931C83.438 10.2598 82.4545 9.86863 81.3378 9.71961C81.3631 9.59542 81.3504 9.34085 81.2997 8.95588C81.2489 8.57091 81.1855 8.31634 81.1093 8.19216C81.0586 8.09281 81.0078 7.95621 80.957 7.78235C80.9063 7.6085 80.8048 7.52157 80.6525 7.52157C80.5256 7.52157 80.4114 7.5402 80.3099 7.57745C80.2083 7.61471 80.0941 7.64575 79.9672 7.67059C79.8911 7.69542 79.834 7.72647 79.7959 7.76373C79.7883 7.77118 79.7804 7.77888 79.7723 7.78682L79.6627 7.89412C79.6119 7.94379 79.5548 7.99346 79.4913 8.04314C79.4279 8.09281 79.3962 8.16732 79.3962 8.26667C79.0662 9.53333 78.7617 10.9304 78.4825 12.4578C78.2033 13.9853 78.0447 15.5438 78.0066 17.1333C77.9685 18.7229 78.0954 20.2814 78.3873 21.8088C78.6792 23.3363 79.2312 24.7333 80.0434 26Z" fill="black"/>
<path fill-rule="evenodd" clip-rule="evenodd" d="M150.562 24.5103C150.534 24.6779 150.491 24.8412 150.435 25C150.209 24.7353 150.025 24.4529 149.884 24.1529C149.742 23.8529 149.596 23.5529 149.446 23.2529C149.125 22.3529 148.819 21.4088 148.527 20.4206C148.235 19.4324 147.948 18.4265 147.665 17.4029C147.138 17.3853 146.572 17.3765 145.97 17.3765H144.161C143.558 17.3765 142.988 17.3809 142.451 17.3897C141.914 17.3985 141.448 17.4118 141.052 17.4294C141.014 17.5353 140.977 17.6588 140.939 17.8C140.826 18.0294 140.732 18.2809 140.657 18.5544C140.581 18.8279 140.515 19.1191 140.459 19.4279C140.402 19.7368 140.336 20.0588 140.261 20.3941C140.186 20.7294 140.091 21.0647 139.978 21.4C140.208 21.4 140.433 21.3341 140.655 21.2022L140.699 21.175C140.934 21.025 141.175 20.95 141.42 20.95C141.25 21.1088 141.104 21.2853 140.982 21.4794C140.859 21.6735 140.751 21.9294 140.657 22.2471C140.638 22.3353 140.581 22.4279 140.487 22.525C140.393 22.6221 140.327 22.6971 140.289 22.75C140.251 22.8206 140.214 22.8956 140.176 22.975C140.138 23.0544 140.091 23.1118 140.035 23.1471C139.903 23.2176 139.79 23.2574 139.696 23.2662C139.601 23.275 139.536 23.2529 139.498 23.2C139.347 22.9882 139.248 22.7632 139.201 22.525C139.154 22.2868 139.112 22.0353 139.074 21.7706C139.074 21.2941 139.14 20.6765 139.272 19.9176C139.404 19.1588 139.573 18.3471 139.78 17.4824C139.63 17.4471 139.479 17.3809 139.328 17.2838C139.178 17.1868 139.046 17.1206 138.933 17.0853C138.725 16.9971 138.556 16.9485 138.424 16.9397C138.292 16.9309 138.151 16.8647 138 16.7412L139.724 16.3176C139.818 16.3176 139.941 16.3 140.091 16.2647C140.317 15.4353 140.543 14.6412 140.77 13.8824C140.996 13.1235 141.212 12.4794 141.42 11.95C141.57 11.5441 141.754 11.0765 141.971 10.5471C142.187 10.0176 142.442 9.51029 142.734 9.025C143.026 8.53971 143.355 8.12059 143.723 7.76765C144.09 7.41471 144.491 7.19412 144.924 7.10588C145.056 7.07059 145.188 7.04412 145.32 7.02647C145.451 7.00882 145.593 7 145.743 7C145.894 7 146.007 7.06618 146.083 7.19853C146.158 7.33088 146.271 7.49412 146.422 7.68824C146.516 7.84706 146.605 7.98382 146.69 8.09853C146.775 8.21324 146.864 8.44706 146.959 8.8C147.411 10.0882 147.835 11.3809 148.23 12.6779C148.626 13.975 148.975 15.1971 149.276 16.3441L151 16.6882L150.689 16.7412C150.633 16.8294 150.553 16.8868 150.449 16.9132C150.345 16.9397 150.246 16.9794 150.152 17.0324C150.058 17.0853 149.964 17.1559 149.87 17.2441C149.775 17.3324 149.681 17.4029 149.587 17.4559C149.851 18.4088 150.058 19.2382 150.209 19.9441C150.359 20.65 150.454 21.1794 150.491 21.5324C150.529 21.8853 150.557 22.2735 150.576 22.6971C150.595 23.1206 150.604 23.5088 150.604 23.8618C150.604 24.1265 150.59 24.3426 150.562 24.5103ZM142.324 13.3926C142.041 14.1956 141.749 15.1 141.448 16.1059C142.428 16 143.407 15.9382 144.387 15.9206C145.367 15.9029 146.337 15.9382 147.298 16.0265C146.902 14.5971 146.516 13.2074 146.139 11.8574C145.762 10.5074 145.357 9.30294 144.924 8.24412C144.604 8.65 144.302 9.09559 144.02 9.58088C143.737 10.0662 143.454 10.6221 143.172 11.2485C142.889 11.875 142.607 12.5897 142.324 13.3926Z" fill="black"/>
<path fill-rule="evenodd" clip-rule="evenodd" d="M74.562 24.5103C74.5337 24.6779 74.4913 24.8412 74.4348 25C74.2087 24.7353 74.025 24.4529 73.8837 24.1529C73.7424 23.8529 73.5964 23.5529 73.4457 23.2529C73.1254 22.3529 72.8192 21.4088 72.5272 20.4206C72.2351 19.4324 71.9478 18.4265 71.6652 17.4029C71.1377 17.3853 70.5725 17.3765 69.9696 17.3765H68.1609C67.558 17.3765 66.988 17.3809 66.4511 17.3897C65.9141 17.3985 65.4478 17.4118 65.0522 17.4294C65.0145 17.5353 64.9768 17.6588 64.9391 17.8C64.8261 18.0294 64.7319 18.2809 64.6565 18.5544C64.5812 18.8279 64.5152 19.1191 64.4587 19.4279C64.4022 19.7368 64.3362 20.0588 64.2609 20.3941C64.1855 20.7294 64.0913 21.0647 63.9783 21.4C64.2079 21.4 64.4334 21.3341 64.6547 21.2022L64.6989 21.175C64.9344 21.025 65.1746 20.95 65.4196 20.95C65.25 21.1088 65.104 21.2853 64.9815 21.4794C64.8591 21.6735 64.7507 21.9294 64.6565 22.2471C64.6377 22.3353 64.5812 22.4279 64.487 22.525C64.3928 22.6221 64.3268 22.6971 64.2891 22.75C64.2514 22.8206 64.2138 22.8956 64.1761 22.975C64.1384 23.0544 64.0913 23.1118 64.0348 23.1471C63.9029 23.2176 63.7899 23.2574 63.6957 23.2662C63.6014 23.275 63.5355 23.2529 63.4978 23.2C63.3471 22.9882 63.2482 22.7632 63.2011 22.525C63.154 22.2868 63.1116 22.0353 63.0739 21.7706C63.0739 21.2941 63.1399 20.6765 63.2717 19.9176C63.4036 19.1588 63.5732 18.3471 63.7804 17.4824C63.6297 17.4471 63.479 17.3809 63.3283 17.2838C63.1775 17.1868 63.0457 17.1206 62.9326 17.0853C62.7254 16.9971 62.5558 16.9485 62.4239 16.9397C62.292 16.9309 62.1507 16.8647 62 16.7412L63.7239 16.3176C63.8181 16.3176 63.9406 16.3 64.0913 16.2647C64.3174 15.4353 64.5435 14.6412 64.7696 13.8824C64.9957 13.1235 65.2123 12.4794 65.4196 11.95C65.5703 11.5441 65.754 11.0765 65.9707 10.5471C66.1873 10.0176 66.4417 9.51029 66.7337 9.025C67.0257 8.53971 67.3554 8.12059 67.7228 7.76765C68.0902 7.41471 68.4906 7.19412 68.9239 7.10588C69.0558 7.07059 69.1877 7.04412 69.3196 7.02647C69.4514 7.00882 69.5928 7 69.7435 7C69.8942 7 70.0072 7.06618 70.0826 7.19853C70.158 7.33088 70.271 7.49412 70.4217 7.68824C70.5159 7.84706 70.6054 7.98382 70.6902 8.09853C70.775 8.21324 70.8645 8.44706 70.9587 8.8C71.4109 10.0882 71.8348 11.3809 72.2304 12.6779C72.6261 13.975 72.9746 15.1971 73.2761 16.3441L75 16.6882L74.6891 16.7412C74.6326 16.8294 74.5525 16.8868 74.4489 16.9132C74.3453 16.9397 74.2464 16.9794 74.1522 17.0324C74.058 17.0853 73.9638 17.1559 73.8696 17.2441C73.7754 17.3324 73.6812 17.4029 73.587 17.4559C73.8507 18.4088 74.058 19.2382 74.2087 19.9441C74.3594 20.65 74.4536 21.1794 74.4913 21.5324C74.529 21.8853 74.5572 22.2735 74.5761 22.6971C74.5949 23.1206 74.6043 23.5088 74.6043 23.8618C74.6043 24.1265 74.5902 24.3426 74.562 24.5103ZM66.3239 13.3926C66.0413 14.1956 65.7493 15.1 65.4478 16.1059C66.4275 16 67.4072 15.9382 68.387 15.9206C69.3667 15.9029 70.337 15.9382 71.2978 16.0265C70.9022 14.5971 70.5159 13.2074 70.1391 11.8574C69.7623 10.5074 69.3572 9.30294 68.9239 8.24412C68.6036 8.65 68.3022 9.09559 68.0196 9.58088C67.737 10.0662 67.4543 10.6221 67.1717 11.2485C66.8891 11.875 66.6065 12.5897 66.3239 13.3926Z" fill="black"/>
<defs>
<linearGradient id="paint0_linear" x1="2" y1="2" x2="2" y2="32" gradientUnits="userSpaceOnUse">
<stop stop-color="#00C7FF"/>
<stop offset="1" stop-color="#00FFED"/>
</linearGradient>
</defs>
</svg>
