<?xml version="1.0" encoding="UTF-8"?>
<svg width="28px" height="28px" viewBox="0 0 28 28" version="1.1" xmlns="http://www.w3.org/2000/svg" xmlns:xlink="http://www.w3.org/1999/xlink">
    <title>create_new_item</title>
    <g id="create_new_item" stroke="none" stroke-width="1" fill="none" fill-rule="evenodd">
        <g id="002-pen" transform="translate(3.000000, 3.000000)" fill="#000000" fill-rule="nonzero">
            <path d="M18.8479895,0.16925697 C18.7382035,0.0594457021 18.5889602,-0.00158088922 18.4336887,3.11443965e-05 C18.2789653,0.0011598366 18.1308181,0.0616382266 18.0195706,0.16925697 L9.66450518,8.52587706 L9.64130579,8.54944719 L9.62961476,8.5611409 C9.6181064,8.57868147 9.60056986,8.59622204 9.58887883,8.61357991 C9.58887883,8.61942677 9.58303332,8.61942677 9.58303332,8.62527362 C9.57134229,8.64263149 9.56531411,8.65450791 9.55380575,8.67186578 C9.54777757,8.67771263 9.54777757,8.68374219 9.54211472,8.68940635 C9.53626921,8.70694692 9.5306064,8.71864063 9.52457818,8.7361812 C9.52457818,8.74202806 9.51873267,8.74202806 9.51873267,8.74769216 L8.03086683,13.2355202 C7.95962465,13.4443626 8.01387831,13.6758616 8.17115915,13.8308033 C8.28131056,13.9395183 8.43018849,14.0003621 8.5850946,13.9999984 C8.64848189,13.9987177 8.71150383,13.9890339 8.77196832,13.9707625 L13.2470743,12.4768905 C13.2527371,12.4768905 13.2527371,12.4768905 13.2585826,12.4710437 C13.2770325,12.4657449 13.2949344,12.4578883 13.3110095,12.447839 C13.3155764,12.4471081 13.3197778,12.4450982 13.3228833,12.4418094 C13.3402371,12.4302984 13.3636192,12.4186047 13.3811557,12.4067283 C13.3985096,12.3950345 13.4160461,12.377494 13.4335827,12.365983 C13.4396108,12.3603188 13.4452737,12.3603188 13.4452737,12.3542893 C13.4511192,12.3484424 13.4628102,12.3425955 13.4688384,12.3310845 L21.8292014,3.96843488 C21.9386221,3.85917172 22,3.71117318 22,3.55696233 C22,3.40256878 21.9386221,3.25438749 21.8292014,3.14548979 L18.8479895,0.16925697 Z M10.3297977,10.0199317 L11.9809726,11.671486 L9.50704164,12.4942484 L10.3297977,10.0199317 Z M13.0603832,11.0995903 L10.901562,8.94045574 L18.4336887,1.40641529 L20.5923273,3.56554992 L13.0603832,11.0995903 Z" id="Shape"></path>
            <path d="M21.3992186,7.16718251 C21.0677918,7.16812298 20.7993776,7.43653495 20.7984371,7.76795881 L20.7984371,18.9963065 C20.7956157,19.99039 19.990561,20.7954378 18.9960927,20.7986355 L3.00390726,20.7986355 C2.00981523,20.7954378 1.20438438,19.99039 1.20156291,18.9963065 L1.20156291,3.00388158 C1.20438438,2.00979804 2.00981523,1.20456217 3.00390726,1.20155264 L14.2319748,1.20155264 C14.5639658,1.20155264 14.8327562,0.932576369 14.8327562,0.600776297 C14.8327562,0.268976225 14.5639658,0 14.2319748,0 L3.00390726,0 C1.34508085,0.000752381116 0.000752387548,1.34525744 0,3.00388158 L0,18.9963065 C0.000752387548,20.6549306 1.34508085,21.9994358 3.00390726,22 L18.9960927,22 C20.6549191,21.9994358 21.9994357,20.6549306 22,18.9963065 L22,7.76795881 C21.9990595,7.43653495 21.7306453,7.16812298 21.3992186,7.16718251 L21.3992186,7.16718251 Z" id="Path"></path>
        </g>
    </g>
</svg>