<?xml version="1.0" encoding="UTF-8"?>
<svg width="724px" height="165px" viewBox="0 0 724 165" version="1.1" xmlns="http://www.w3.org/2000/svg" xmlns:xlink="http://www.w3.org/1999/xlink">
    <!-- Generator: Sketch 60 (88103) - https://sketch.com -->
    <title>Group 2 Copy</title>
    <desc>Created with Sketch.</desc>
    <defs>
        <linearGradient x1="50%" y1="0%" x2="50%" y2="100%" id="linearGradient-1">
            <stop stop-color="#00FFED" offset="0%"></stop>
            <stop stop-color="#00FFB5" offset="100%"></stop>
        </linearGradient>
        <linearGradient x1="50%" y1="0%" x2="50%" y2="100%" id="linearGradient-2">
            <stop stop-color="#00C7FF" offset="0%"></stop>
            <stop stop-color="#00FFED" offset="100%"></stop>
        </linearGradient>
        <ellipse id="path-3" cx="85" cy="82.5" rx="85" ry="82.5"></ellipse>
    </defs>
    <g id="Page-1" stroke="none" stroke-width="1" fill="none" fill-rule="evenodd">
        <g id="F-LOGO-Copy">
            <g id="Group-2-Copy">
                <g id="173-[Converted]">
                    <mask id="mask-4" fill="white">
                        <use xlink:href="#path-3"></use>
                    </mask>
                    <g id="Mask">
                        <use fill="url(#linearGradient-1)" xlink:href="#path-3"></use>
                        <use fill="url(#linearGradient-2)" xlink:href="#path-3"></use>
                    </g>
                    <g mask="url(#mask-4)">
                        <g transform="translate(92.747687, 96.315895) rotate(-17.000000) translate(-92.747687, -96.315895) translate(12.747687, 20.315895)">
                            <g id="Group" stroke-width="1" fill="none" fill-rule="evenodd" transform="translate(0.161980, 0.157708)">
                                <g transform="translate(2.601257, 20.023137)" fill="#FFFFFF" fill-rule="nonzero" id="Path">
                                    <path d="M14.3714545,29.608327 C14.3714545,29.608327 -3.67756531,51.6432899 0.873926638,86.2484626 C5.4288305,120.853635 52.7691234,133.953786 95.9025276,127.537963 C139.035932,121.125672 168.098607,92.5194357 141.666517,34.653369 C115.234427,-23.2162306 33.570289,5.49599382 14.3714545,29.608327 Z"></path>
                                    <path d="M37.8296095,62.438803 C37.8296095,62.438803 35.5656599,34.537736 53.328957,33.9020244 C71.0922541,33.2628006 58.3554032,70.1059769 65.3248168,79.6873101 C72.2942303,89.2686433 92.0551301,93.7326735 101.049464,79.6873101 C110.043798,65.6419467 89.9653304,34.2497341 113.257035,27.8891057 C136.54874,21.5284772 143.579619,63.8366662 135.746285,85.5351546 C127.916365,107.233643 45.6151376,110.148785 37.8296095,62.438803 Z"></path>
                                </g>
                                <g transform="translate(0.911471, 0.000000)" fill-rule="nonzero" id="Path">
                                    <path d="M147.301557,42.2724237 C119.827254,-15.1995468 45.387392,-10.9540593 13.2175973,36.2515506 C13.2175973,36.2515506 -3.776963,59.1491134 0.957539916,93.5165096 C2.36193179,103.723223 7.71706243,112.031747 15.6894688,118.522781 C10.7138077,108.445889 6.49708565,94.6322658 8.97250365,79.011679 C14.0510117,46.9354425 54.7641903,5.88754373 76.7698761,85.1413208 L83.5506773,85.5378002 C83.5506773,85.5378002 79.6885996,33.4481254 115.067926,33.8937261 C143.893424,34.2551189 153.493648,81.2747694 147.03912,112.347527 C160.00492,97.1514889 162.565453,74.2048048 147.301557,42.2724237 Z" fill="#232323"></path>
                                    <path d="M13.2175973,36.2480419 C13.2175973,36.2480419 -3.776963,59.1456047 0.957539916,93.5094923 C2.36193179,103.716205 7.71706243,112.02473 15.6894688,118.515764 C13.4977664,114.0773 11.4550145,108.912542 10.0648084,103.189905 C-4.8373498,71.2785762 12.2919754,20.9958651 71.3615488,10.2137305 C98.9989879,5.16826694 120.142888,13.1820631 135.311029,23.9852497 C102.297181,-13.5118778 41.4650248,-5.20335361 13.2175973,36.2480419 Z" fill="#000000"></path>
                                    <path d="M83.5116664,77.155594 C76.521625,71.8539977 72.9929131,63.3700401 65.8220031,52.0896748 C55.3351678,35.5989384 42.6601765,39.3567211 42.6601765,39.3567211 L42.6601765,39.3602298 C54.6223325,39.4549638 67.3930778,51.3739066 76.7663297,85.1378121 L83.5471686,85.5342915 C83.5506773,85.5342915 83.3024262,82.1624622 83.5116664,77.155594 Z" fill="#000000"></path>
                                </g>
                                <g transform="translate(23.464492, 72.837891)" fill-rule="nonzero">
                                    <g transform="translate(44.651500, 7.861457)" id="Path">
                                        <path d="M4.38045421,9.43831504 C5.51531633,4.35425612 10.5973708,1.14382554 15.7361683,2.26309041 C20.8749659,3.38586395 24.1199623,8.41378419 22.9886466,13.4978431 C21.8537844,18.581902 16.77173,21.7958413 11.6329325,20.6730677 C6.49413491,19.5502942 3.24913853,14.522374 4.38045421,9.43831504 Z" fill="#FFC200"></path>
                                        <path d="M13.1188926,18.7082141 C7.980095,17.5889492 4.73509862,12.5575203 5.8664143,7.47346135 C6.07920095,6.51208651 6.47285625,5.64544569 6.94453332,4.83494354 C5.71037076,6.05946843 4.78829529,7.62082538 4.38045421,9.43831504 C3.24559209,14.522374 6.49413491,19.5538029 11.6329325,20.6730677 C15.8000043,21.5818126 19.9387046,19.6274849 21.9566313,16.1503956 C19.7365573,18.3573473 16.4241785,19.4274909 13.1188926,18.7082141 Z" fill="#FF9D00"></path>
                                        <path d="M23.4532308,12.1996362 C23.4532308,12.1996362 2.49374593,15.3398934 0.408436783,13.5574905 C-1.67687237,11.7750875 4.81666684,-1.54381361 14.8814753,0.308762723 C24.9462837,2.16133906 32.2377729,9.98917581 23.4532308,12.1996362 Z" fill="#FFC200"></path>
                                        <path d="M20.4954963,9.44182371 C20.4954963,9.44182371 6.80267555,11.4943941 5.43729456,10.3295165 C4.07191357,9.16463899 8.3170072,0.463144084 14.8956611,1.67012564 C21.4743149,2.87710719 26.233643,7.99625278 20.4954963,9.44182371 Z" fill="#FFD86C"></path>
                                        <path d="M25.8648128,9.99619314 C25.8648128,9.99619314 4.90532794,13.1364504 2.82001879,11.3540474 C1.68870311,10.3856552 3.10018788,6.02087309 6.2281516,2.52273179 C1.46173069,6.04894243 -0.985315761,12.3680522 0.408436783,13.5574905 C2.49374593,15.3398934 23.4532308,12.1996362 23.4532308,12.1996362 C25.7335943,11.6242148 26.9110138,10.6698573 27.2585653,9.54006639 C26.8471778,9.70848243 26.3861401,9.86286379 25.8648128,9.99619314 Z" fill="#FF9D00"></path>
                                        <path d="M12.0868773,14.985518 C12.0868773,14.985518 20.3536386,13.2662711 21.3892003,13.7715192 C22.424762,14.2767673 19.6904535,17.6977179 15.8141901,17.6977179 C11.9343802,17.6977179 9.65047019,15.6030435 12.0868773,14.985518 Z" fill="#FFD86C"></path>
                                    </g>
                                    <g transform="translate(15.604354, 2.105200)">
                                        <ellipse id="Oval" fill="#000000" cx="6.29020974" cy="6.24396093" rx="6.1956379" ry="6.12964178"></ellipse>
                                        <path d="M8.99614662,4.06507853 C8.99614662,5.29311209 7.98895648,6.28606494 6.75124748,6.28606494 C5.50999203,6.28606494 4.50634834,5.28960342 4.50634834,4.06507853 C4.50634834,2.83704498 5.51353848,1.84409213 6.75124748,1.84409213 C7.98895648,1.84409213 8.99614662,2.83704498 8.99614662,4.06507853 Z" id="Path" fill="#FFFFFF"></path>
                                    </g>
                                    <g transform="translate(88.096037, -0.000000)" id="Oval">
                                        <ellipse fill="#000000" cx="6.20627723" cy="6.17027891" rx="6.1956379" ry="6.12964178"></ellipse>
                                        <ellipse fill="#FFFFFF" cx="6.66376852" cy="3.98788785" rx="2.24489914" ry="2.2209864"></ellipse>
                                    </g>
                                    <path d="M119.928919,20.6751095 C119.928919,25.299533 116.13777,29.0502984 111.463557,29.0502984 C106.789344,29.0502984 102.998195,25.299533 102.998195,20.6751095 C102.998195,16.050686 106.789344,12.2999207 111.463557,12.2999207 C116.13777,12.2999207 119.928919,16.050686 119.928919,20.6751095 Z" id="Path" fill="#FFB3B9"></path>
                                    <path d="M16.9898317,23.5522167 C16.9898317,28.1766402 13.1986829,31.9274056 8.52446955,31.9274056 C3.85025618,31.9274056 0.0591074022,28.1766402 0.0591074022,23.5522167 C0.0591074022,18.9277932 3.85025618,15.1770279 8.52446955,15.1770279 C13.2022294,15.1770279 16.9898317,18.9242846 16.9898317,23.5522167 Z" id="Path" fill="#FFB3B9"></path>
                                </g>
                            </g>
                            <path d="M55.0197938,19.0224793 C55.0197938,19.0224793 85.728324,8.23698959 113.123827,16.9025848 C140.51933,25.5716897 150.22405,47.6129768 154.098125,64.7827182 C157.975752,81.9524596 155.969471,95.4053662 153.047047,101.972125 C150.124623,108.535375 154.968106,93.180179 152.546364,78.1584101 C150.124623,63.1331314 142.546917,31.1837945 116.266409,28.9550975 C89.9859012,26.7264005 85.1424189,52.0703708 83.5551487,60.3253242 C81.9678784,68.5802775 72.9484905,51.1859115 67.3522089,44.9701282 C61.7559272,38.7543448 46.9733635,32.2577808 34.7794351,37.7049269 C22.5855067,43.152073 12.2274143,59.1951817 8.71908546,72.7217933 C5.21075661,86.2484048 7.54017333,58.331781 21.5805906,41.8324036 C35.6245588,25.3365359 55.0197938,19.0224793 55.0197938,19.0224793 Z" id="Path" fill="#333333" fill-rule="nonzero"></path>
                        </g>
                    </g>
                </g>
                <g id="Group_93-Copy" transform="translate(229.000000, 43.000000)" fill="#000000" fill-rule="nonzero">
                    <path d="M6.85208333,77.5263333 L35.02125,44.7263333 L60.005,77.5263333 L75.13,77.5263333 L43.01,35.4648889 L71.3716667,2.52366667 L64.6158333,2.52366667 L39.9529167,31.3466667 L18.0308333,2.52366667 L2.98833333,2.52366667 L31.9870833,40.5306667 L0.160416667,77.5263333 L6.85208333,77.5263333 Z M85.0483333,77.5263333 L96.965,52.5072222 L129.2775,52.5072222 L140.81375,77.5263333 L153.702083,77.5263333 L118.204167,0.815333333 L115.082917,0.815333333 L78.69125,77.5263333 L85.0483333,77.5263333 Z M126.98125,47.6282222 L99.1925,47.6282222 L113.277083,17.9852222 L126.98125,47.6282222 Z M229.189583,79.2984444 L229.189583,2.52822222 L223.64375,2.52822222 L223.64375,57.3224444 L223.135,57.3224444 L173.680833,2.52822222 L166.60875,2.52822222 L166.60875,77.5263333 L172.278333,77.5263333 L172.278333,18.3041111 L172.736667,18.3041111 L226.27,79.303 L229.189583,79.2984444 Z M248.439583,77.5263333 L260.35625,52.5072222 L292.66875,52.5072222 L304.205,77.5263333 L317.079583,77.5263333 L281.577083,0.815333333 L278.455833,0.815333333 L242.064167,77.5263333 L248.439583,77.5263333 Z M290.3725,47.6282222 L262.588333,47.6282222 L276.672917,17.9852222 L290.3725,47.6282222 Z M380.609167,77.5263333 L380.609167,72.7111111 L342.69125,72.7111111 L342.69125,2.52822222 L330.009167,2.52822222 L330.009167,77.5263333 L380.609167,77.5263333 Z M406.990833,77.5263333 L406.990833,2.52822222 L394.327083,2.52822222 L394.327083,77.5263333 L406.990833,77.5263333 Z M426.172083,77.5263333 L438.08875,52.5072222 L470.40125,52.5072222 L481.9375,77.5263333 L494.812083,77.5263333 L459.31875,0.815333333 L456.202083,0.815333333 L419.810417,77.5263333 L426.172083,77.5263333 Z M468.105,47.6282222 L440.320833,47.6282222 L454.405417,17.9852222 L468.105,47.6282222 Z" id="XANALIA"></path>
                </g>
            </g>
        </g>
    </g>
</svg>