<svg width="1000" height="1000" viewBox="0 0 1000 1000" fill="none" xmlns="http://www.w3.org/2000/svg">
<g clip-path="url(#clip0)">
<rect width="1000" height="1000" fill=""/>
<circle cx="500.092" cy="499.256" r="500" fill="url(#paint0_linear)"/>
<path d="M87.0826 411.196C87.0826 411.196 19.5507 567.621 105.774 754.496C192.017 941.364 491.287 930.591 732.345 817.358C973.409 704.145 1093.99 491.008 839.805 212.153C585.61 -66.7226 157.756 241.009 87.0826 411.196Z" fill="white"/>
<path d="M274.07 629.373C274.07 629.373 212.495 475.259 315.134 439.938C417.766 404.598 407.232 636.185 464.539 678.053C521.846 719.92 644.989 709.941 673.176 614.266C701.363 518.591 529.698 376.495 654.702 298.852C779.706 221.209 894.089 448.479 885.945 585.463C877.821 722.441 402.222 885.915 274.07 629.373Z" fill="white"/>
<path d="M839.825 212.146C585.63 -66.7288 174.404 85.337 75.3984 408.498C75.3984 408.498 19.5568 567.641 105.8 754.509C131.403 810.01 175.93 847.948 232.021 871.074C186.561 822.449 138.885 751.317 125.707 658.427C98.6191 467.688 256.348 164.78 517.579 576.651L556.397 567.243C556.397 567.243 444.315 278.315 644.033 220.019C806.752 172.514 942.305 422.809 959.914 610.219C1006.46 501.703 981.053 367.096 839.825 212.146Z" fill="#232323"/>
<path d="M75.3922 408.478C75.3922 408.478 19.5506 567.621 105.788 754.47C131.391 809.97 175.918 847.908 232.009 871.034C211.985 849.617 191.538 823.823 173.793 793.741C34.6359 638.289 43.728 323.525 357.184 160.793C503.842 84.6503 636.641 93.772 740.675 128.995C489.982 -27.0152 162.324 124.711 75.3922 408.478Z" fill="black"/>
<path d="M541.636 519.748C493.132 501.683 458.572 459.61 398.679 407.93C311.102 332.387 246.347 375.5 246.347 375.5L246.353 375.52C313.783 355.493 406.272 401.168 517.553 576.637L556.371 567.23C556.391 567.224 549.145 548.518 541.636 519.748Z" fill="black"/>
<path d="M497.091 613.916C494.653 583.117 517.661 556.163 548.499 553.679C579.343 551.216 606.313 574.166 608.771 604.959C611.209 635.758 588.207 662.732 557.363 665.196C526.519 667.659 499.549 644.709 497.091 613.916Z" fill="#FFC200"/>
<path d="M562.31 651.492C531.472 653.976 504.496 631.005 502.038 600.212C501.567 594.391 502.277 588.797 503.523 583.387C498.708 592.457 496.231 602.902 497.091 613.916C499.529 644.715 526.525 667.679 557.363 665.196C582.372 663.188 602.254 644.984 607.569 621.785C598.914 638.124 582.144 649.891 562.31 651.492Z" fill="#FF9D00"/>
<path d="M609.131 596.794C609.131 596.794 496.719 650.646 481.901 644.117C467.083 637.589 480.492 550.851 540.302 544.059C600.113 537.268 654.694 569.149 609.131 596.794Z" fill="#FFC200"/>
<path d="M587.715 586.231C587.715 586.231 514.278 621.418 504.58 617.156C494.881 612.893 503.657 556.221 542.744 551.76C581.831 547.298 617.474 568.163 587.715 586.231Z" fill="#FFD86C"/>
<path d="M618.87 580.146C618.87 580.146 506.458 633.997 491.64 627.469C483.598 623.919 483.963 596.725 495.484 571.499C474.798 599.701 472.001 639.764 481.901 644.117C496.72 650.646 609.131 596.794 609.131 596.794C620.956 589.609 625.921 582.169 625.916 575.161C623.895 576.824 621.57 578.493 618.87 580.146Z" fill="#FF9D00"/>
<path d="M550.049 632.143C550.049 632.143 593.552 608.175 600.252 609.262C606.951 610.348 597.51 634.46 575.713 641.124C553.896 647.795 537.42 639.835 550.049 632.143Z" fill="#FFD86C"/>
<ellipse cx="328.964" cy="609.782" rx="36.4312" ry="36.3702" transform="rotate(-17 328.964 609.782)" fill="black"/>
<path d="M340.4 592.767C342.531 599.735 338.59 607.101 331.63 609.228C324.65 611.362 317.278 607.434 315.153 600.485C313.023 593.517 316.964 586.152 323.924 584.024C330.884 581.896 338.27 585.798 340.4 592.767Z" fill="white"/>
<ellipse cx="732.348" cy="472.936" rx="36.4312" ry="36.3702" transform="rotate(-17 732.348 472.936)" fill="black"/>
<ellipse cx="731.135" cy="459.766" rx="13.2003" ry="13.1782" transform="rotate(-17 731.135 459.766)" fill="white"/>
<path d="M901.615 511.183C909.637 537.423 894.825 565.223 868.541 573.259C842.257 581.295 814.432 566.53 806.41 540.29C798.387 514.05 813.199 486.25 839.483 478.214C865.767 470.178 893.592 484.943 901.615 511.183Z" fill="#FFB3B9"/>
<path d="M327.758 704.48C335.78 730.72 320.969 758.52 294.685 766.556C268.401 774.592 240.575 759.827 232.553 733.587C224.531 707.347 239.342 679.546 265.626 671.511C291.93 663.469 319.73 678.22 327.758 704.48Z" fill="#FFB3B9"/>
<path d="M274.262 239.821C274.262 239.821 428.232 125.828 597.316 127.901C766.405 129.993 859.214 238.376 910.784 329.141C962.375 419.899 974.431 499.683 969.389 541.969C964.342 584.234 964.94 488.779 925.262 407.705C885.579 326.612 787.542 158.352 635.895 190.887C484.248 223.422 500.979 375.556 506.374 425.125C511.769 474.694 430.876 391.501 388.623 365.852C346.371 340.203 251.976 328.755 192.856 380.626C133.737 432.498 103.323 541.338 107.06 624.123C110.798 706.907 75.4676 544.497 125.797 426.738C176.152 308.993 274.262 239.821 274.262 239.821Z" fill="#333333"/>
</g>
<defs>
<linearGradient id="paint0_linear" x1="0.0922852" y1="-0.743652" x2="0.0922852" y2="999.256" gradientUnits="userSpaceOnUse">
<stop offset="0.000409747" stop-color="#00C7FF"/>
<stop offset="1" stop-color="#00FFED"/>
</linearGradient>
<clipPath id="clip0">
<rect width="1000" height="1000" fill="white"/>
</clipPath>
</defs>
</svg>
