<?xml version="1.0" encoding="UTF-8"?>
<svg width="1108px" height="282px" viewBox="0 0 1108 282" version="1.1" xmlns="http://www.w3.org/2000/svg" xmlns:xlink="http://www.w3.org/1999/xlink">
    <!-- Generator: Sketch 60 (88103) - https://sketch.com -->
    <title>F LOGO Copy 8</title>
    <desc>Created with Sketch.</desc>
    <defs>
        <linearGradient x1="50%" y1="0%" x2="50%" y2="100%" id="linearGradient-1">
            <stop stop-color="#00C7FF" offset="0%"></stop>
            <stop stop-color="#00FFED" offset="100%"></stop>
        </linearGradient>
        <filter x="0.0%" y="0.0%" width="100.0%" height="100.0%" filterUnits="objectBoundingBox" id="filter-2">
            <feGaussianBlur stdDeviation="0" in="SourceGraphic"></feGaussianBlur>
        </filter>
        <filter x="0.0%" y="0.0%" width="100.0%" height="100.0%" filterUnits="objectBoundingBox" id="filter-3">
            <feGaussianBlur stdDeviation="0" in="SourceGraphic"></feGaussianBlur>
        </filter>
        <filter x="0.0%" y="0.0%" width="100.0%" height="100.0%" filterUnits="objectBoundingBox" id="filter-4">
            <feGaussianBlur stdDeviation="0" in="SourceGraphic"></feGaussianBlur>
        </filter>
        <filter x="0.0%" y="-0.0%" width="100.0%" height="100.0%" filterUnits="objectBoundingBox" id="filter-5">
            <feGaussianBlur stdDeviation="0" in="SourceGraphic"></feGaussianBlur>
        </filter>
        <filter x="-0.0%" y="0.0%" width="100.0%" height="100.0%" filterUnits="objectBoundingBox" id="filter-6">
            <feGaussianBlur stdDeviation="0" in="SourceGraphic"></feGaussianBlur>
        </filter>
        <filter x="0.0%" y="0.0%" width="100.0%" height="100.0%" filterUnits="objectBoundingBox" id="filter-7">
            <feGaussianBlur stdDeviation="0" in="SourceGraphic"></feGaussianBlur>
        </filter>
        <filter x="0.0%" y="0.0%" width="100.0%" height="100.0%" filterUnits="objectBoundingBox" id="filter-8">
            <feGaussianBlur stdDeviation="0" in="SourceGraphic"></feGaussianBlur>
        </filter>
    </defs>
    <g id="F-LOGO-Copy-8" stroke="none" stroke-width="1" fill="none" fill-rule="evenodd">
        <g id="Group-4">
            <g id="Group-3">
                <ellipse id="Oval" fill="url(#linearGradient-1)" cx="152.5" cy="148" rx="133.5" ry="135"></ellipse>
                <g id="173-[Converted]" transform="translate(152.995050, 141.449432) rotate(-17.000000) translate(-152.995050, -141.449432) translate(27.495050, 31.949432)" fill-rule="nonzero">
                    <g id="Group" transform="translate(0.015745, 0.011199)">
                        <g transform="translate(0.279038, 13.791209)" fill="#FFFFFF" id="Path">
                            <path d="M23.3791465,45.7605364 C23.3791465,45.7605364 -6.24258028,80.7345698 1.22724647,135.66012 C8.70267278,190.585671 86.3967103,211.378314 157.186478,201.195077 C227.976245,191.017449 275.673385,145.613449 232.293514,53.7680592 C188.913643,-38.0829377 54.8879284,7.48928765 23.3791465,45.7605364 Z"></path>
                            <path d="M54.2663761,116.68431 C54.2663761,116.68431 50.553861,72.1382586 79.6828256,71.1232994 C108.81179,70.1027328 87.925393,128.925502 99.354116,144.222786 C110.782839,159.520071 143.187552,166.647215 157.93682,144.222786 C172.686088,121.798358 139.760615,71.6784428 177.955284,61.5232441 C216.149953,51.3680453 227.679468,118.916098 214.834054,153.559289 C201.994239,188.202479 67.0333963,192.856712 54.2663761,116.68431 Z"></path>
                        </g>
                        <g id="Path">
                            <path d="M232.578151,67.5592681 C189.19828,-24.2917289 71.6633004,-17.506643 20.8695984,57.9367827 C20.8695984,57.9367827 -5.96354234,94.5313862 1.51188397,149.456937 C3.7293138,165.76918 12.1846649,179.047761 24.7724989,189.421653 C16.9163018,173.316887 10.2584127,151.240124 14.1669128,126.275494 C22.1854974,75.0116475 86.4685642,9.40940005 121.213898,136.071813 L131.920276,136.705461 C131.920276,136.705461 125.822344,53.456383 181.683657,54.1685366 C227.196964,54.7461101 242.355001,129.892338 232.163783,179.552437 C252.635812,155.266316 256.678702,118.593207 232.578151,67.5592681 Z" fill="#232323"></path>
                            <path d="M20.8695984,57.9311752 C20.8695984,57.9311752 -5.96354234,94.5257787 1.51188397,149.445722 C3.7293138,165.757965 12.1846649,179.036546 24.7724989,189.410438 C21.3119645,182.316939 18.086612,174.062686 15.8915804,164.916839 C-7.63781385,113.916545 19.4081106,33.5553337 112.674553,16.3234586 C156.312004,8.25986071 189.696642,21.0674112 213.646004,38.3329313 C161.519605,-21.594517 65.4701756,-8.3159358 20.8695984,57.9311752 Z" fill="#000000"></path>
                            <path d="M131.858681,123.309122 C120.821928,114.836176 115.250355,101.277219 103.928024,83.2490782 C87.370095,56.893786 67.3572308,62.8994281 67.3572308,62.8994281 L67.3572308,62.9050356 C86.2445814,63.0564384 106.408634,82.1051463 121.208298,136.066205 L131.914736,136.699854 C131.920276,136.699854 131.528306,131.311038 131.858681,123.309122 Z" fill="#000000"></path>
                        </g>
                        <g transform="translate(35.609534, 116.408623)">
                            <g transform="translate(70.501382, 12.564083)" id="Path">
                                <path d="M6.91640987,15.0841991 C8.70827235,6.95891863 16.7324566,1.82804792 24.8462339,3.61684329 C32.9600112,5.41124616 38.083618,13.4468065 36.2973551,21.572087 C34.5054926,29.6973675 26.4813084,34.8338457 18.3675311,33.0394428 C10.2537537,31.24504 5.13014695,23.2094796 6.91640987,15.0841991 Z" fill="#FFC200"></path>
                                <path d="M20.713751,29.8992378 C12.5999737,28.1104425 7.47636689,20.0692746 9.26262981,11.9439941 C9.59860403,10.4075366 10.2201563,9.02248193 10.9648992,7.72714736 C9.01624872,9.68416799 7.56036045,12.1795095 6.91640987,15.0841991 C5.12454738,23.2094796 10.2537537,31.2506475 18.3675311,33.0394428 C24.9470261,34.4917877 31.4817247,31.3684052 34.6678801,25.8113638 C31.1625492,29.3384869 25.9325505,31.0487772 20.713751,29.8992378 Z" fill="#FF9D00"></path>
                                <path d="M37.0308988,19.4973087 C37.0308988,19.4973087 3.93743848,24.5160292 0.644891159,21.6674147 C-2.64765616,18.8188001 7.60515701,-2.46730395 23.4967374,0.493460789 C39.3883179,3.45422553 50.9010344,15.964578 37.0308988,19.4973087 Z" fill="#FFC200"></path>
                                <path d="M32.3608572,15.0898066 C32.3608572,15.0898066 10.7409164,18.3701994 8.58508181,16.5085064 C6.42924725,14.6468134 13.1319329,0.740191184 23.5191357,2.66917427 C33.9063386,4.59815735 41.4209619,12.7795129 32.3608572,15.0898066 Z" fill="#FFD86C"></path>
                                <path d="M40.8386066,15.9757931 C40.8386066,15.9757931 7.74514627,20.9945136 4.45259895,18.145899 C2.66633603,16.5982265 4.894965,9.62248539 9.83378598,4.03179895 C2.30796353,9.66734546 -1.55573996,19.7664691 0.644891159,21.6674147 C3.93743848,24.5160292 37.0308988,19.4973087 37.0308988,19.4973087 C40.6314225,18.5776772 42.4904798,17.0524348 43.0392377,15.2468169 C42.3896876,15.5159773 41.6617434,15.7627077 40.8386066,15.9757931 Z" fill="#FF9D00"></path>
                                <path d="M19.0842761,23.9496708 C19.0842761,23.9496708 32.1368744,21.2019914 33.7719489,22.0094727 C35.4070234,22.816954 31.0897547,28.2842752 24.9694244,28.2842752 C18.8434946,28.2842752 15.2373713,24.9365924 19.0842761,23.9496708 Z" fill="#FFD86C"></path>
                            </g>
                            <g transform="translate(24.638109, 3.364505)">
                                <ellipse id="Oval" fill="#000000" cx="9.93177114" cy="9.97902163" rx="9.78244927" ry="9.79631817"></ellipse>
                                <path d="M14.2042433,6.49675856 C14.2042433,8.4593867 12.6139653,10.0463117 10.6597153,10.0463117 C8.69986568,10.0463117 7.1151873,8.45377919 7.1151873,6.49675856 C7.1151873,4.53413042 8.70546525,2.94720538 10.6597153,2.94720538 C12.6139653,2.94720538 14.2042433,4.53413042 14.2042433,6.49675856 Z" id="Path" fill="#FFFFFF"></path>
                            </g>
                            <g transform="translate(139.097059, -0.000000)" id="Oval">
                                <ellipse fill="#000000" cx="9.79924798" cy="9.86126394" rx="9.78244927" ry="9.79631817"></ellipse>
                                <ellipse fill="#FFFFFF" cx="10.5215925" cy="6.37339336" rx="3.54452798" ry="3.54955318"></ellipse>
                            </g>
                            <path d="M189.358801,33.042706 C189.358801,40.4334028 183.372861,46.4278299 175.992627,46.4278299 C168.612394,46.4278299 162.626453,40.4334028 162.626453,33.042706 C162.626453,25.6520092 168.612394,19.6575821 175.992627,19.6575821 C183.372861,19.6575821 189.358801,25.6520092 189.358801,33.042706 Z" id="Path" fill="#FFB3B9"></path>
                            <path d="M26.8256747,37.6408634 C26.8256747,45.0315602 20.839734,51.0259873 13.4595004,51.0259873 C6.07926679,51.0259873 0.0933261712,45.0315602 0.0933261712,37.6408634 C0.0933261712,30.2501666 6.07926679,24.2557395 13.4595004,24.2557395 C20.8453336,24.2557395 26.8256747,30.244559 26.8256747,37.6408634 Z" id="Path" fill="#FFB3B9"></path>
                        </g>
                    </g>
                    <path d="M85.1929888,30.160645 C85.1929888,30.160645 133.679463,12.923408 176.934916,26.7726557 C220.190368,40.6275127 235.513395,75.8536268 241.630271,103.294097 C247.752753,130.734566 244.584985,152.234836 239.970696,162.72975 C235.356408,173.219055 243.003904,148.678569 239.180156,124.670963 C235.356408,100.657747 223.391776,49.5967096 181.896818,46.0348334 C140.40186,42.4729572 132.754363,82.9773792 130.248182,96.1703442 C127.742001,109.363309 113.501061,81.5638472 104.664951,71.6298587 C95.8288402,61.6958701 72.4882766,51.3131413 53.2349749,60.0187032 C33.9816731,68.7242652 17.6270193,94.3641645 12.0876302,115.982229 C6.54824112,137.600293 10.2262161,92.984288 32.3949858,66.6151857 C54.5693621,40.2516927 85.1929888,30.160645 85.1929888,30.160645 Z" id="Path" fill="#333333"></path>
                </g>
            </g>
            <g id="Group-2" transform="translate(306.000000, 67.000000)" fill="#1EC8FF" fill-rule="nonzero">
                <path d="M31.7142222,140.998 C32.8582222,140.426 33.4778889,140.330667 33.5732222,140.712 C33.6685556,141.093333 34.0022222,140.902667 34.5742222,140.14 C40.1035556,129.081333 46.0142222,118.165667 52.3062222,107.393 C58.5982222,96.6203333 64.4135556,87.7066667 69.7522222,80.652 L69.7522222,80.652 L116.084222,132.704 C117.609556,131.750667 118.133889,130.749667 117.657222,129.701 C117.180556,128.652333 117.037556,127.651333 117.228222,126.698 C117.418889,125.363333 117.323556,124.314667 116.942222,123.552 C116.560889,122.789333 116.179556,122.122 115.798222,121.55 C115.416889,120.978 115.035556,120.453667 114.654222,119.977 C114.272889,119.500333 114.082222,118.785333 114.082222,117.832 C114.082222,116.878667 113.700889,115.115 112.938222,112.541 C112.175556,109.967 111.603556,108.203333 111.222222,107.25 C107.599556,100.767333 103.071222,93.665 97.6372222,85.943 C92.2032222,78.221 86.5308889,71.214 80.6202222,64.922 C82.9082222,61.49 85.7205556,57.7243333 89.0572222,53.625 C92.3938889,49.5256667 95.8735556,45.331 99.4962222,41.041 C103.118889,36.751 106.836889,32.5086667 110.650222,28.314 C114.463556,24.1193333 118.086222,20.306 121.518222,16.874 C122.471556,15.9206667 123.615556,14.9196667 124.950222,13.871 C126.284889,12.8223333 127.428889,11.8213333 128.382222,10.868 C129.907556,9.34266667 130.765556,8.24633333 130.956222,7.579 C131.146889,6.91166667 131.051556,5.81533333 130.670222,4.29 C130.288889,3.33666667 130.145889,2.62166667 130.241222,2.145 C130.336556,1.66833333 129.907556,0.953333333 128.954222,-1.13686838e-13 C123.615556,-1.13686838e-13 118.133889,1.76366667 112.509222,5.291 C106.884556,8.81833333 101.355222,13.2513333 95.9212222,18.59 C90.4872222,23.9286667 85.2438889,29.6963333 80.1912222,35.893 C75.1385556,42.0896667 70.5148889,47.9526667 66.3202222,53.482 L66.3202222,53.482 L60.8862222,48.62 C56.3102222,45.188 51.9248889,42.042 47.7302222,39.182 C43.5355556,36.322 39.2932222,33.7003333 35.0032222,31.317 C30.7132222,28.9336667 26.2802222,26.8363333 21.7042222,25.025 C17.1282222,23.2136667 12.0755556,21.6406667 6.54622222,20.306 C5.78355556,20.1153333 5.21155556,20.1153333 4.83022222,20.306 C4.44888889,20.4966667 3.87688889,20.7826667 3.11422222,21.164 C2.16088889,21.736 1.54122222,22.2603333 1.25522222,22.737 C0.969222222,23.2136667 0.635555556,23.8333333 0.254222222,24.596 C-0.127111111,25.74 -0.0794444444,26.8363333 0.397222222,27.885 C0.873888889,28.9336667 1.11222222,29.9346667 1.11222222,30.888 L1.11222222,30.888 L5.11622222,34.034 C12.3615556,38.9913333 20.2742222,44.473 28.8542222,50.479 C37.4342222,56.485 46.5862222,63.1106667 56.3102222,70.356 C54.0222222,73.788 51.5912222,77.6013333 49.0172222,81.796 C46.4432222,85.9906667 43.9645556,90.2806667 41.5812222,94.666 C39.1978889,99.0513333 37.0052222,103.436667 35.0032222,107.822 C33.0012222,112.207333 31.6188889,116.306667 30.8562222,120.12 C30.4748889,121.454667 30.4748889,122.98 30.8562222,124.696 C31.2375556,126.412 31.4282222,127.937333 31.4282222,129.272 L31.4282222,129.272 L31.4282222,135.421 C31.4282222,137.041667 31.5235556,138.900667 31.7142222,140.998 Z" id="X" filter="url(#filter-2)"></path>
                <path d="M489.575222,141.807 C489.989222,140.565 490.299722,139.2885 490.506722,137.9775 C490.713722,136.6665 490.817222,134.976 490.817222,132.906 C490.817222,130.146 490.748222,127.11 490.610222,123.798 C490.472222,120.486 490.265222,117.45 489.989222,114.69 C489.713222,111.93 489.023222,107.79 487.919222,102.27 C486.815222,96.75 485.297222,90.264 483.365222,82.812 C484.055222,82.398 484.745222,81.846 485.435222,81.156 C486.125222,80.466 486.815222,79.914 487.505222,79.5 C488.195222,79.086 488.919722,78.7755 489.678722,78.5685 C490.437722,78.3615 491.024222,77.913 491.438222,77.223 L491.438222,77.223 L493.715222,76.809 L481.088222,74.118 C478.880222,65.148 476.327222,55.5915 473.429222,45.4485 C470.531222,35.3055 467.426222,25.197 464.114222,15.123 C463.424222,12.363 462.768722,10.5345 462.147722,9.6375 C461.526722,8.7405 460.871222,7.671 460.181222,6.429 C459.077222,4.911 458.249222,3.6345 457.697222,2.5995 C457.145222,1.5645 456.317222,1.047 455.213222,1.047 C454.109222,1.047 453.074222,1.116 452.108222,1.254 C451.142222,1.392 450.176222,1.599 449.210222,1.875 C446.036222,2.565 443.103722,4.29 440.412722,7.05 C437.721722,9.81 435.306722,13.0875 433.167722,16.8825 C431.028722,20.6775 429.165722,24.645 427.578722,28.785 C425.991722,32.925 424.646222,36.582 423.542222,39.756 C422.024222,43.896 420.437222,48.933 418.781222,54.867 C417.125222,60.801 415.469222,67.011 413.813222,73.497 C412.709222,73.773 411.812222,73.911 411.122222,73.911 L411.122222,73.911 L398.495222,77.223 C399.599222,78.189 400.634222,78.7065 401.600222,78.7755 C402.566222,78.8445 403.808222,79.224 405.326222,79.914 C406.154222,80.19 407.120222,80.7075 408.224222,81.4665 C409.328222,82.2255 410.432222,82.743 411.536222,83.019 C410.018222,89.781 408.776222,96.129 407.810222,102.063 C406.844222,107.997 406.361222,112.827 406.361222,116.553 C406.637222,118.623 406.947722,120.5895 407.292722,122.4525 C407.637722,124.3155 408.362222,126.075 409.466222,127.731 C409.742222,128.145 410.225222,128.3175 410.915222,128.2485 C411.605222,128.1795 412.433222,127.869 413.399222,127.317 C413.813222,127.041 414.158222,126.5925 414.434222,125.9715 C414.710222,125.3505 414.986222,124.764 415.262222,124.212 C415.538222,123.798 416.021222,123.2115 416.711222,122.4525 C417.401222,121.6935 417.815222,120.969 417.953222,120.279 C418.643222,117.795 419.436722,115.794 420.333722,114.276 C421.230722,112.758 422.300222,111.378 423.542222,110.136 C421.748222,110.136 419.988722,110.7225 418.263722,111.8955 L417.93988,112.108564 C416.31865,113.139521 414.667097,113.655 412.985222,113.655 C413.813222,111.033 414.503222,108.411 415.055222,105.789 C415.607222,103.167 416.090222,100.6485 416.504222,98.2335 C416.918222,95.8185 417.401222,93.5415 417.953222,91.4025 C418.505222,89.2635 419.195222,87.297 420.023222,85.503 C420.299222,84.399 420.575222,83.433 420.851222,82.605 C423.749222,82.467 427.164722,82.3635 431.097722,82.2945 C435.030722,82.2255 439.205222,82.191 443.621222,82.191 L443.621222,82.191 L456.869222,82.191 C461.285222,82.191 465.425222,82.26 469.289222,82.398 C471.359222,90.402 473.463722,98.268 475.602722,105.996 C477.741722,113.724 479.984222,121.107 482.330222,128.145 C483.434222,130.491 484.503722,132.837 485.538722,135.183 C486.573722,137.529 487.919222,139.737 489.575222,141.807 Z M423.749222,72.255 C425.957222,64.389 428.096222,57.3165 430.166222,51.0375 C432.236222,44.7585 434.306222,39.1695 436.376222,34.2705 C438.446222,29.3715 440.516222,25.0245 442.586222,21.2295 C444.656222,17.4345 446.864222,13.95 449.210222,10.776 C452.384222,19.056 455.351222,28.4745 458.111222,39.0315 C460.871222,49.5885 463.700222,60.456 466.598222,71.634 C459.560222,70.944 452.453222,70.668 445.277222,70.806 C438.101222,70.944 430.925222,71.427 423.749222,72.255 Z" id="A" filter="url(#filter-3)"></path>
                <path d="M538.182222,138.477 C539.600889,139.807 541.108222,140.294667 542.704222,139.94 C545.541556,139.408 549.487222,138.477 554.541222,137.147 C559.595222,135.817 565.181222,134.265333 571.299222,132.492 C577.417222,130.718667 583.668222,128.768 590.052222,126.64 C596.436222,124.512 602.465556,122.384 608.140222,120.256 C613.814889,118.128 618.691556,116.044333 622.770222,114.005 C626.848889,111.965667 629.686222,110.059333 631.282222,108.286 C632.168889,107.222 633.144222,105.803333 634.208222,104.03 C635.272222,102.256667 635.804222,100.394667 635.804222,98.444 C635.804222,96.316 635.626889,95.2076667 635.272222,95.119 C634.917556,95.0303333 634.562889,94.5426667 634.208222,93.656 C634.385556,92.4146667 633.764889,91.794 632.346222,91.794 C630.218222,91.794 627.824222,92.4146667 625.164222,93.656 C618.780222,96.1386667 612.351889,98.4883333 605.879222,100.705 C599.406556,102.921667 592.712222,104.916667 585.796222,106.69 C578.880222,108.463333 571.565222,110.059333 563.851222,111.478 C556.137222,112.896667 547.935556,114.138 539.246222,115.202 C539.600889,107.754 539.866889,99.0203333 540.044222,89.001 C540.221556,78.9816667 540.177222,69.0953333 539.911222,59.342 C539.645222,49.5886667 539.024556,40.7663333 538.049222,32.875 C537.073889,24.9836667 535.699556,19.442 533.926222,16.25 C533.394222,15.3633333 532.773556,14.787 532.064222,14.521 C531.354889,14.255 530.556889,13.9446667 529.670222,13.59 C528.606222,13.2353333 527.586556,12.7033333 526.611222,11.994 C525.635889,11.2846667 524.970889,11.3733333 524.616222,12.26 C525.502889,21.6586667 525.946222,30.481 525.946222,38.727 C525.946222,46.973 525.768889,54.953 525.414222,62.667 C525.059556,70.381 524.704889,77.8733333 524.350222,85.144 C523.995556,92.4146667 523.995556,99.6853333 524.350222,106.956 C524.527556,109.793333 524.882222,112.675 525.414222,115.601 C525.946222,118.527 526.921556,121.32 528.340222,123.98 C529.581556,126.817333 530.335222,129.211333 530.601222,131.162 C530.867222,133.112667 532.241556,134.708667 534.724222,135.95 C535.610889,136.304667 536.763556,137.147 538.182222,138.477 Z" id="L" filter="url(#filter-4)"></path>
                <path d="M680.192222,131.8 C680.489556,130.164667 680.675389,128.157667 680.749722,125.779 C680.824056,123.400333 680.638222,121.616333 680.192222,120.427 C679.448889,118.791667 679.337389,116.9705 679.857722,114.9635 C680.378056,112.9565 680.489556,110.986667 680.192222,109.054 C678.408222,94.336 676.698556,79.6923333 675.063222,65.123 C673.427889,50.5536667 672.015556,35.91 670.826222,21.192 C670.677556,20.4486667 670.380222,20.0026667 669.934222,19.854 C669.488222,19.7053333 669.042222,19.408 668.596222,18.962 C668.298889,18.6646667 667.852889,18.3301667 667.258222,17.9585 C666.663556,17.5868333 665.994556,17.3266667 665.251222,17.178 C664.507889,17.0293333 663.876056,16.8435 663.355722,16.6205 C662.835389,16.3975 662.426556,16.4346667 662.129222,16.732 C661.534556,17.3266667 661.237222,18.8876667 661.237222,21.415 C661.237222,28.997 661.274389,36.9878333 661.348722,45.3875 C661.423056,53.7871667 661.683222,62.2983333 662.129222,70.921 C662.575222,79.5436667 663.318556,88.0548333 664.359222,96.4545 C665.399889,104.854167 666.886556,112.845 668.819222,120.427 C669.413889,122.211 670.343056,123.6605 671.606722,124.7755 C672.870389,125.8905 674.022556,127.042667 675.063222,128.232 C675.955222,129.272667 676.810056,130.1275 677.627722,130.7965 C678.445389,131.4655 679.300222,131.8 680.192222,131.8 Z" id="I" filter="url(#filter-5)"></path>
                <path d="M278.026222,148.496 C278.966222,147.368 279.436222,145.676 279.436222,143.42 C279.436222,141.164 279.342222,138.72 279.154222,136.088 C279.718222,135.148 280.235222,133.597 280.705222,131.435 C281.175222,129.273 281.598222,127.44 281.974222,125.936 C282.350222,124.62 282.632222,123.68 282.820222,123.116 C283.008222,122.552 283.008222,121.424 282.820222,119.732 C280.376222,107.7 279.483222,94.775 280.141222,80.957 C280.799222,67.139 283.290222,52.898 287.614222,38.234 C292.314222,39.362 296.967222,41.994 301.573222,46.13 C306.179222,50.266 310.456222,54.966 314.404222,60.23 C318.352222,65.494 321.971222,70.899 325.261222,76.445 C328.551222,81.991 331.324222,86.832 333.580222,90.968 C335.460222,94.164 337.105222,97.36 338.515222,100.556 C339.925222,103.752 341.476222,106.901 343.168222,110.003 C344.860222,113.105 346.693222,116.207 348.667222,119.309 C350.641222,122.411 353.132222,125.466 356.140222,128.474 C357.080222,129.414 357.550222,130.072 357.550222,130.448 C357.550222,130.824 358.396222,131.012 360.088222,131.012 C361.216222,131.012 362.297222,131.294 363.331222,131.858 C364.365222,132.422 365.446222,132.234 366.574222,131.294 C367.890222,130.354 368.689222,129.743 368.971222,129.461 C369.253222,129.179 370.052222,128.38 371.368222,127.064 C371.368222,123.492 371.180222,120.484 370.804222,118.04 C370.428222,115.596 369.864222,113.293 369.112222,111.131 C368.360222,108.969 367.467222,106.666 366.433222,104.222 C365.399222,101.778 364.318222,98.77 363.190222,95.198 C363.378222,90.686 363.895222,85.61 364.741222,79.97 C365.587222,74.33 366.480222,68.643 367.420222,62.909 C368.360222,57.175 369.394222,51.723 370.522222,46.553 C371.650222,41.383 372.778222,37.012 373.906222,33.44 C373.718222,31.748 373.342222,29.633 372.778222,27.095 C372.214222,24.557 372.120222,22.348 372.496222,20.468 C372.872222,17.836 373.248222,15.016 373.624222,12.008 C374.000222,9 374.094222,6.556 373.906222,4.676 C372.966222,4.864 372.261222,4.958 371.791222,4.958 C371.321222,4.958 370.616222,5.146 369.676222,5.522 C368.360222,5.898 367.279222,6.744 366.433222,8.06 C365.587222,9.376 364.788222,10.41 364.036222,11.162 C362.720222,12.478 361.498222,13.982 360.370222,15.674 C359.242222,17.366 358.396222,19.528 357.832222,22.16 C357.268222,25.356 356.469222,29.727 355.435222,35.273 C354.401222,40.819 353.367222,46.694 352.333222,52.898 C351.299222,59.102 350.359222,65.212 349.513222,71.228 C348.667222,77.244 348.150222,82.32 347.962222,86.456 C345.330222,81.756 342.228222,76.163 338.656222,69.677 C335.084222,63.191 330.901222,56.846 326.107222,50.642 C321.313222,44.438 315.767222,38.939 309.469222,34.145 C303.171222,29.351 295.886222,26.39 287.614222,25.262 C287.802222,24.322 287.708222,22.395 287.332222,19.481 C286.956222,16.567 286.486222,14.64 285.922222,13.7 C285.546222,12.948 285.170222,11.914 284.794222,10.598 C284.418222,9.282 283.666222,8.624 282.538222,8.624 C281.598222,8.624 280.752222,8.765 280.000222,9.047 C279.248222,9.329 278.402222,9.564 277.462222,9.752 C276.898222,9.94 276.475222,10.175 276.193222,10.457 C276.136822,10.5134 276.078542,10.57168 276.018382,10.63184 L275.206222,11.444 C274.830222,11.82 274.407222,12.196 273.937222,12.572 C273.467222,12.948 273.232222,13.512 273.232222,14.264 C270.788222,23.852 268.532222,34.427 266.464222,45.989 C264.396222,57.551 263.221222,69.348 262.939222,81.38 C262.657222,93.412 263.597222,105.209 265.759222,116.771 C267.921222,128.333 272.010222,138.908 278.026222,148.496 Z" id="N" filter="url(#filter-6)"></path>
                <path d="M797.665222,141.881 C798.075222,140.651 798.382722,139.386833 798.587722,138.0885 C798.792722,136.790167 798.895222,135.116 798.895222,133.066 C798.895222,130.332667 798.826889,127.326 798.690222,124.046 C798.553556,120.766 798.348556,117.759333 798.075222,115.026 C797.801889,112.292667 797.118556,108.192667 796.025222,102.726 C794.931889,97.2593333 793.428556,90.836 791.515222,83.456 C792.198556,83.046 792.881889,82.4993333 793.565222,81.816 C794.248556,81.1326667 794.931889,80.586 795.615222,80.176 C796.298556,79.766 797.016056,79.4585 797.767722,79.2535 C798.519389,79.0485 799.100222,78.6043333 799.510222,77.921 L799.510222,77.921 L801.765222,77.511 L789.260222,74.846 C787.073556,65.9626667 784.545222,56.4985 781.675222,46.4535 C778.805222,36.4085 775.730222,26.3976667 772.450222,16.421 C771.766889,13.6876667 771.117722,11.8768333 770.502722,10.9885 C769.887722,10.1001667 769.238556,9.041 768.555222,7.811 C767.461889,6.30766667 766.641889,5.0435 766.095222,4.0185 C765.548556,2.9935 764.728556,2.481 763.635222,2.481 C762.541889,2.481 761.516889,2.54933333 760.560222,2.686 C759.603556,2.82266667 758.646889,3.02766667 757.690222,3.301 C754.546889,3.98433333 751.642722,5.69266667 748.977722,8.426 C746.312722,11.1593333 743.921056,14.4051667 741.802722,18.1635 C739.684389,21.9218333 737.839389,25.851 736.267722,29.951 C734.696056,34.051 733.363556,37.6726667 732.270222,40.816 C730.766889,44.916 729.195222,49.9043333 727.555222,55.781 C725.915222,61.6576667 724.275222,67.8076667 722.635222,74.231 C721.541889,74.5043333 720.653556,74.641 719.970222,74.641 L719.970222,74.641 L707.465222,77.921 C708.558556,78.8776667 709.583556,79.3901667 710.540222,79.4585 C711.496889,79.5268333 712.726889,79.9026667 714.230222,80.586 C715.050222,80.8593333 716.006889,81.3718333 717.100222,82.1235 C718.193556,82.8751667 719.286889,83.3876667 720.380222,83.661 C718.876889,90.3576667 717.646889,96.6443333 716.690222,102.521 C715.733556,108.397667 715.255222,113.181 715.255222,116.871 C715.528556,118.921 715.836056,120.8685 716.177722,122.7135 C716.519389,124.5585 717.236889,126.301 718.330222,127.941 C718.603556,128.351 719.081889,128.521833 719.765222,128.4535 C720.448556,128.385167 721.268556,128.077667 722.225222,127.531 C722.635222,127.257667 722.976889,126.8135 723.250222,126.1985 C723.523556,125.5835 723.796889,125.002667 724.070222,124.456 C724.343556,124.046 724.821889,123.465167 725.505222,122.7135 C726.188556,121.961833 726.598556,121.244333 726.735222,120.561 C727.418556,118.101 728.204389,116.119333 729.092722,114.616 C729.981056,113.112667 731.040222,111.746 732.270222,110.516 C730.493556,110.516 728.751056,111.096833 727.042722,112.2585 L726.722009,112.469506 C725.116443,113.490502 723.480847,114.001 721.815222,114.001 C722.635222,111.404333 723.318556,108.807667 723.865222,106.211 C724.411889,103.614333 724.890222,101.120167 725.300222,98.7285 C725.710222,96.3368333 726.188556,94.0818333 726.735222,91.9635 C727.281889,89.8451667 727.965222,87.8976667 728.785222,86.121 C729.058556,85.0276667 729.331889,84.071 729.605222,83.251 C732.475222,83.1143333 735.857722,83.0118333 739.752722,82.9435 C743.647722,82.8751667 747.781889,82.841 752.155222,82.841 L752.155222,82.841 L765.275222,82.841 C769.648556,82.841 773.748556,82.9093333 777.575222,83.046 C779.625222,90.9726667 781.709389,98.7626667 783.827722,106.416 C785.946056,114.069333 788.166889,121.381 790.490222,128.351 C791.583556,130.674333 792.642722,132.997667 793.667722,135.321 C794.692722,137.644333 796.025222,139.831 797.665222,141.881 Z M732.475222,73.001 C734.661889,65.211 736.780222,58.2068333 738.830222,51.9885 C740.880222,45.7701667 742.930222,40.2351667 744.980222,35.3835 C747.030222,30.5318333 749.080222,26.2268333 751.130222,22.4685 C753.180222,18.7101667 755.366889,15.2593333 757.690222,12.116 C760.833556,20.316 763.771889,29.6435 766.505222,40.0985 C769.238556,50.5535 772.040222,61.316 774.910222,72.386 C767.940222,71.7026667 760.901889,71.4293333 753.795222,71.566 C746.688556,71.7026667 739.581889,72.181 732.475222,73.001 Z" id="A" filter="url(#filter-7)"></path>
                <path d="M229.665222,141.881 C230.075222,140.651 230.382722,139.386833 230.587722,138.0885 C230.792722,136.790167 230.895222,135.116 230.895222,133.066 C230.895222,130.332667 230.826889,127.326 230.690222,124.046 C230.553556,120.766 230.348556,117.759333 230.075222,115.026 C229.801889,112.292667 229.118556,108.192667 228.025222,102.726 C226.931889,97.2593333 225.428556,90.836 223.515222,83.456 C224.198556,83.046 224.881889,82.4993333 225.565222,81.816 C226.248556,81.1326667 226.931889,80.586 227.615222,80.176 C228.298556,79.766 229.016056,79.4585 229.767722,79.2535 C230.519389,79.0485 231.100222,78.6043333 231.510222,77.921 L231.510222,77.921 L233.765222,77.511 L221.260222,74.846 C219.073556,65.9626667 216.545222,56.4985 213.675222,46.4535 C210.805222,36.4085 207.730222,26.3976667 204.450222,16.421 C203.766889,13.6876667 203.117722,11.8768333 202.502722,10.9885 C201.887722,10.1001667 201.238556,9.041 200.555222,7.811 C199.461889,6.30766667 198.641889,5.0435 198.095222,4.0185 C197.548556,2.9935 196.728556,2.481 195.635222,2.481 C194.541889,2.481 193.516889,2.54933333 192.560222,2.686 C191.603556,2.82266667 190.646889,3.02766667 189.690222,3.301 C186.546889,3.98433333 183.642722,5.69266667 180.977722,8.426 C178.312722,11.1593333 175.921056,14.4051667 173.802722,18.1635 C171.684389,21.9218333 169.839389,25.851 168.267722,29.951 C166.696056,34.051 165.363556,37.6726667 164.270222,40.816 C162.766889,44.916 161.195222,49.9043333 159.555222,55.781 C157.915222,61.6576667 156.275222,67.8076667 154.635222,74.231 C153.541889,74.5043333 152.653556,74.641 151.970222,74.641 L151.970222,74.641 L139.465222,77.921 C140.558556,78.8776667 141.583556,79.3901667 142.540222,79.4585 C143.496889,79.5268333 144.726889,79.9026667 146.230222,80.586 C147.050222,80.8593333 148.006889,81.3718333 149.100222,82.1235 C150.193556,82.8751667 151.286889,83.3876667 152.380222,83.661 C150.876889,90.3576667 149.646889,96.6443333 148.690222,102.521 C147.733556,108.397667 147.255222,113.181 147.255222,116.871 C147.528556,118.921 147.836056,120.8685 148.177722,122.7135 C148.519389,124.5585 149.236889,126.301 150.330222,127.941 C150.603556,128.351 151.081889,128.521833 151.765222,128.4535 C152.448556,128.385167 153.268556,128.077667 154.225222,127.531 C154.635222,127.257667 154.976889,126.8135 155.250222,126.1985 C155.523556,125.5835 155.796889,125.002667 156.070222,124.456 C156.343556,124.046 156.821889,123.465167 157.505222,122.7135 C158.188556,121.961833 158.598556,121.244333 158.735222,120.561 C159.418556,118.101 160.204389,116.119333 161.092722,114.616 C161.981056,113.112667 163.040222,111.746 164.270222,110.516 C162.493556,110.516 160.751056,111.096833 159.042722,112.2585 L158.722009,112.469506 C157.116443,113.490502 155.480847,114.001 153.815222,114.001 C154.635222,111.404333 155.318556,108.807667 155.865222,106.211 C156.411889,103.614333 156.890222,101.120167 157.300222,98.7285 C157.710222,96.3368333 158.188556,94.0818333 158.735222,91.9635 C159.281889,89.8451667 159.965222,87.8976667 160.785222,86.121 C161.058556,85.0276667 161.331889,84.071 161.605222,83.251 C164.475222,83.1143333 167.857722,83.0118333 171.752722,82.9435 C175.647722,82.8751667 179.781889,82.841 184.155222,82.841 L184.155222,82.841 L197.275222,82.841 C201.648556,82.841 205.748556,82.9093333 209.575222,83.046 C211.625222,90.9726667 213.709389,98.7626667 215.827722,106.416 C217.946056,114.069333 220.166889,121.381 222.490222,128.351 C223.583556,130.674333 224.642722,132.997667 225.667722,135.321 C226.692722,137.644333 228.025222,139.831 229.665222,141.881 Z M164.475222,73.001 C166.661889,65.211 168.780222,58.2068333 170.830222,51.9885 C172.880222,45.7701667 174.930222,40.2351667 176.980222,35.3835 C179.030222,30.5318333 181.080222,26.2268333 183.130222,22.4685 C185.180222,18.7101667 187.366889,15.2593333 189.690222,12.116 C192.833556,20.316 195.771889,29.6435 198.505222,40.0985 C201.238556,50.5535 204.040222,61.316 206.910222,72.386 C199.940222,71.7026667 192.901889,71.4293333 185.795222,71.566 C178.688556,71.7026667 171.581889,72.181 164.475222,73.001 Z" id="A" filter="url(#filter-8)"></path>
            </g>
        </g>
    </g>
</svg>