<?xml version="1.0" encoding="UTF-8"?>
<svg width="28px" height="28px" viewBox="0 0 28 28" version="1.1" xmlns="http://www.w3.org/2000/svg" xmlns:xlink="http://www.w3.org/1999/xlink">
    <title>submit_b</title>
    <g id="submit_b" stroke="none" stroke-width="1" fill="none" fill-rule="evenodd">
        <g id="Group" transform="translate(3.000000, 3.000000)" fill="#1D8FFF" fill-rule="nonzero">
            <path d="M20.8002266,1.19981641 C20.0264883,0.426164062 18.9978164,0 17.9036172,0 L4.09633984,0 C1.83755859,0 0,1.83777344 0,4.09638281 L0,17.9037031 C0,20.1623984 1.83773047,22 4.09638281,22 L17.9036172,22 C20.1623555,22 22,20.1623984 22,17.9036602 L22,4.09646875 C22,3.00222656 21.5739648,1.97351172 20.8002266,1.19981641 Z M20.7109375,17.9036602 L20.7109375,17.9036602 C20.7109375,19.4516094 19.4515664,20.7109375 17.9036172,20.7109375 L4.09638281,20.7109375 C2.54847656,20.7109375 1.2890625,19.4515664 1.2890625,17.9036602 L1.2890625,4.09633984 C1.2890625,2.54847656 2.54843359,1.2890625 4.09638281,1.2890625 L17.9036172,1.2890625 C18.6535078,1.2890625 19.3584961,1.58112109 19.8887305,2.1113125 C20.4189648,2.64154687 20.7109375,3.34649219 20.7109375,4.09638281 L20.7109375,17.9036602 Z" id="Shape"></path>
            <path d="M14.8140849,8.70945997 L11.4488241,5.19418549 C11.3297894,5.06984135 11.168354,5 11.0000212,5 C10.831646,5 10.6702106,5.06988556 10.5511759,5.19422969 L7.18591514,8.70972519 C6.93802829,8.96866864 6.93802829,9.38846822 7.18591514,9.64741167 C7.30981624,9.7769276 7.47226718,9.84164136 7.63471812,9.84164136 C7.79716906,9.84164136 7.95962,9.7768834 8.08356343,9.64741167 L10.3651549,7.26396496 L10.3652396,14.3369492 C10.3652396,14.7031742 10.6494335,15 10.9999788,15 C11.3505242,15 11.6347181,14.70313 11.6347181,14.3369492 L11.6346335,7.26365553 L13.9164366,9.64719065 C14.1642811,9.9060899 14.566198,9.9061341 14.8140849,9.64714645 C15.0619717,9.388203 15.0619717,8.96840342 14.8140849,8.70945997 Z" id="Path"></path>
            <path d="M17.3421053,16 L4.65789474,16 C4.2945614,16 4,16.2238667 4,16.5 C4,16.7761333 4.2945614,17 4.65789474,17 L17.3421053,17 C17.7054386,17 18,16.7761333 18,16.5 C18,16.2238333 17.7054386,16 17.3421053,16 Z" id="Path"></path>
        </g>
    </g>
</svg>